# xmcd
# 
# Track frame offsets:
#     150
#     18598
#     37170
#     55605
# 
# Disc length: 986
# 
# Revision: 5
# Processed by: cddbd v1.5.2PL0 Copyright (c) Steve Scherf et al.
# Submitted via: fre:ac v1.0.17
# 
DISCID=2d03d804
DTITLE=源さくら(本渡楓),二階堂サキ(田野アサミ),水野愛(種田梨沙),紺野純子(河瀬茉希),ゆうぎり(衣川里佳),星川リリィ(田中美海) フランシュシュ\n - ゾンビランドサガ OP 徒花ネクロマンシー
DYEAR=2018
DGENRE=Anime(J)
TTITLE0=徒花ネクロマンシー
TTITLE1=FANTASTICLOVERS
TTITLE2=徒花ネクロマンシー(Instrumental)
TTITLE3=FANTASTICLOVERS(Instrumental)
EXTD=チンチク×チンチン
EXTT0=
EXTT1=
EXTT2=
EXTT3=
PLAYORDER=
